<?xml version="1.0"?>
<svg xmlns="http://www.w3.org/2000/svg" id="Layer_1" data-name="Layer 1" viewBox="0 0 512 512" width="512" height="512"><title>Book Shelf</title><path d="M45.824,501H466.176a26.03,26.03,0,0,0,26-26V37a26.03,26.03,0,0,0-26-26H45.824a26.03,26.03,0,0,0-26,26V475A26.03,26.03,0,0,0,45.824,501ZM94.262,140.733H77.638V78.641H94.262Zm-28.624,0H47.906V41.161H65.638Zm414.538,12V154.2H448.622c-5.226,0-9.32,3.514-9.32,8V191.68h-23.4c-4.486,0-8,3.218-8,7.328v68.64l-22.236-.009a40.956,40.956,0,0,0,12.215-27.61h.044v-.361c0-.156-.012-.309-.023-.462.007-.312.023-.623.023-.937A41.02,41.02,0,0,0,385.165,208.4a7.128,7.128,0,0,0-4.95-1.984H365.708c.492-3.138,4.351-5.324,8.506-4.78a6,6,0,0,0,1.547-11.9,21.376,21.376,0,0,0-9.445.879c.088-3.319.136-6.914.136-10.861a6,6,0,0,0-12,0c0,2.77-.025,5.355-.071,7.791-2.79-1.278-4.669-3.446-4.669-5.849a6,6,0,0,0-12,0c0,8.676,6.847,16.011,16.178,18.3-.147,2.3-.32,4.428-.515,6.418H332.644a7.12,7.12,0,0,0-4.952,1.987,41.394,41.394,0,0,0-12.718,31.574v.048h0c0,.1,0,.194.006.291a41.244,41.244,0,0,0,12.312,27.3l-70.256-.03a5.7,5.7,0,0,0-2.068,0l-113.924-.047V244.6a8.226,8.226,0,0,0-8-8.419h-9.593v-22.5a8.227,8.227,0,0,0-8-8.419H31.824v-52.53Zm-257.953-12H123V120.17h99.221ZM111.452,236.185H31.824V217.263h79.628Zm17.593,12v19.347l-97.221-.04V248.185ZM250,279.583v98.282H31.824V279.492Zm12,0,92.346.039c.046,0,.092.007.137.009q.992.047,1.974.046,1.052,0,2.094-.054l121.625.051v98.187H262Zm65.892-33.919H385a29.518,29.518,0,0,1-26.8,21.959h-3.48A29.723,29.723,0,0,1,327.892,245.668Zm50.3-27.248a29.019,29.019,0,0,1,7.378,15.248H360.771c.169-.764.336-1.521.5-2.266.948-4.272,1.852-8.346,2.631-12.982ZM349.557,228.8c-.349,1.572-.705,3.186-1.065,4.865H327.305a29.4,29.4,0,0,1,7.369-15.248h17.038C351.055,222.045,350.322,225.357,349.557,228.8Zm130.619,38.875-28.874-.012V166.2h28.874Zm-40.874-.017-19.4-.008V203.68h19.4ZM31.824,475V389.865H250V489H45.824A14.015,14.015,0,0,1,31.824,475Zm434.352,14H262V389.865H480.176V475A14.015,14.015,0,0,1,466.176,489ZM45.824,23H466.176a14.015,14.015,0,0,1,14,14V140.733H234.223V116.17a8.009,8.009,0,0,0-8-8H119a8.009,8.009,0,0,0-8,8v24.563h-4.74V73.969c0-4.11-3.514-7.328-8-7.328H77.638V37.161a8.225,8.225,0,0,0-8.415-8h-24.9a8.225,8.225,0,0,0-8.415,8V140.733H31.824V37A14.015,14.015,0,0,1,45.824,23Z"/><path d="M380.418,303.3H363.489a6,6,0,0,0,0,12h16.929a6,6,0,0,0,0-12Z"/><path d="M133.206,315.3h16.929a6,6,0,0,0,0-12H133.206a6,6,0,1,0,0,12Z"/><path d="M150.135,410.636H133.206a6,6,0,1,0,0,12h16.929a6,6,0,0,0,0-12Z"/><path d="M380.418,410.636H363.489a6,6,0,0,0,0,12h16.929a6,6,0,0,0,0-12Z"/></svg>
