<svg id="Layer_1" height="512" viewBox="0 0 512 512" width="512" xmlns="http://www.w3.org/2000/svg" data-name="Layer 1"><path d="m155.089 218.331c23.761 4.471 54.843 7.044 88.073 7.321v131.948h-20.869a6 6 0 0 0 0 12h53.739a6 6 0 1 0 0-12h-20.87v-131.948c33.232-.277 64.313-2.85 88.074-7.321 29.608-5.571 43.4-13 43.4-23.389s-13.79-17.817-43.4-23.388c-25.186-4.739-58.595-7.349-94.074-7.349s-68.888 2.61-94.073 7.349c-29.608 5.571-43.4 13-43.4 23.388s13.792 17.818 43.4 23.389zm5.786-35.63c24.035-4.189 55.39-6.5 88.287-6.5s64.253 2.307 88.288 6.5c26.615 4.638 35.451 10.1 37.031 12.241-1.58 2.143-10.416 7.6-37.031 12.242-24.036 4.189-55.39 6.5-88.288 6.5s-64.252-2.307-88.287-6.5c-26.615-4.639-35.451-10.1-37.031-12.242 1.58-2.142 10.416-7.603 37.031-12.242z"/><path d="m16 369.6a6 6 0 0 0 6-6v-85.785h133.838v85.785a6 6 0 0 0 12 0v-94.775a24.6 24.6 0 0 0 -24.4-24.726h-121.438v-100.099a6 6 0 0 0 -12 0v219.6a6 6 0 0 0 6 6zm139.473-103.785h-133.473v-9.715h121.433a12.487 12.487 0 0 1 12.04 9.715z"/><path d="m496 142.4a6 6 0 0 0 -6 6v100.1h-121.433a24.594 24.594 0 0 0 -24.405 24.725v94.775a6 6 0 0 0 12 0v-85.785h133.838v85.785a6 6 0 0 0 12 0v-219.6a6 6 0 0 0 -6-6zm-139.473 127.815a12.484 12.484 0 0 1 12.04-9.716h121.433v9.716z"/></svg>