<svg width="230" height="230" viewBox="0 0 230 230" fill="none" xmlns="http://www.w3.org/2000/svg">
<rect x="47.5" y="30.5" width="136" height="174" fill="#A17939" stroke="black"/>
<rect x="51.5" y="35.5" width="127" height="162" rx="1.5" fill="#A09E8F" stroke="black"/>
<path d="M66.5 101C59 101 50.5 99.5 50.5 108V76.5C50.5 71 53.5 71 59 71H59H171.5C176 71 180 71 180 76.5V105C179 96 147 102 137.5 102C119 103.5 81.7 101 66.5 101Z" fill="#DFDAC6" stroke="black"/>
<path d="M10.5 30.5H46.5V59.5H10.5V30.5Z" fill="#A27939" stroke="black"/>
<path d="M184.5 59.5H220.5V30.5H184.5V59.5Z" fill="#A27939" stroke="black"/>
<rect x="4.5" y="30.5" width="42" height="25" fill="#A1793A" stroke="black"/>
<rect x="184.5" y="30.5" width="42" height="25" fill="#A1793A" stroke="black"/>
<rect x="1.5" y="26.5" width="228" height="3" rx="1.5" fill="#A27939" stroke="black"/>
<path d="M132 96C142.8 92 160.5 85 172.5 74" stroke="black"/>
<rect x="20.2414" y="32.7071" width="12" height="12" rx="1.5" transform="rotate(45.3324 20.2414 32.7071)" fill="#E1DF89" stroke="black"/>
<path d="M130.5 78.5C104.5 89 99 103 112 99.5" stroke="black"/>
<rect x="210.241" y="34.7071" width="12" height="12" rx="1.5" transform="rotate(45.3324 210.241 34.7071)" fill="#E1DF89" stroke="black"/>
<circle cx="210.5" cy="42.5" r="2.5" fill="black"/>
<circle cx="20.5" cy="41.5" r="2.5" fill="black"/>
<path d="M50.5 89C54.5 81 58 79 68.5 77.5" stroke="black"/>
<path d="M43 140.5C40.6 135.7 42 131.833 43 130.5C44.4856 130.005 49.0876 130.741 54.7187 132C53.5 127.5 57.5 122 58.5 122.5C59.5 123 70.7929 128 71.5 128C73.5 128 87.5 127.5 88 136C90.7917 135.696 94.1246 135.891 96.8403 136.59C103.661 131.1 110.237 133.029 111.5 138.5C110 141.5 111.5 143 117 144C118.494 144.996 115.524 153.431 111.549 153.5C111.534 153.826 111.5 153.893 111.5 153.5C111.516 153.5 111.533 153.5 111.549 153.5C111.59 152.579 111.476 149.591 110 149C108.5 153.5 104.1 151.6 102.5 150C104 152 95.5 153.5 91 153.5C89 153.5 87.5 158 81.5 156.5C81.1068 156.369 80.7035 156.247 80.2909 156.132C73.4495 155.235 54.6203 167.529 41.5 160.5C39 155.5 40.2 152 43 150C42.8333 148 42.6 143.3 43 140.5Z" fill="#869E74"/>
<path d="M59.5 143C54.3 141.4 46.3333 140.667 43 140.5M43 140.5C40.6 135.7 42 131.833 43 130.5C44.4856 130.005 49.0876 130.741 54.7187 132M43 140.5C42.6 143.3 42.8333 148 43 150M79 138.5C76.0238 137.602 72.1317 136.475 68 135.346M43 150C40.2 152 39 155.5 41.5 160.5C55.5 168 76 153.5 81.5 156.5M43 150C48 156.5 69.5 152.5 81.5 156.5M81.5 156.5C87.5 158 89 153.5 91 153.5C95.5 153.5 104 152 102.5 150M102.5 150C98.5 147.2 94 147.5 91 150M102.5 150C104.1 151.6 108.5 153.5 110 149C112 149.8 111.5 155 111.5 153.5C115.5 153.5 118.5 145 117 144C111.5 143 110 141.5 111.5 138.5C110 132 101 130.5 93 140.5M54.7187 132C53.5 127.5 57.5 122 58.5 122.5C59.5 123 70.7929 128 71.5 128C73.5 128 87.5 127.5 88 136M54.7187 132C58.8655 132.927 63.5704 134.137 68 135.346M88 136C81.5 133.5 73.2 134.269 68 135.346M88 136C94 135.346 102.5 137 102 141C101.719 143.245 106 141 109 143" stroke="black"/>
<rect x="51.5" y="35.5" width="127" height="38" fill="#E7E3CC" stroke="black"/>
<path d="M57 73V45.4193C71.6992 40.9061 107.761 44.0152 108.937 44.4164C110.113 44.8175 110.08 63.6393 109.917 73H57Z" fill="#7E7868" stroke="black"/>
<path d="M119.5 73.0001V45.5001C134.5 41.0001 171.3 44.1001 172.5 44.5001C173.7 44.9001 173.667 63.6668 173.5 73.0001H119.5Z" fill="#7E7868" stroke="black"/>
</svg>
