<svg width="90" height="90" viewBox="0 0 90 90" fill="none" xmlns="http://www.w3.org/2000/svg">
<g filter="url(#filter0_ii)">
<path d="M12 28.5C12 25.7386 14.2386 23.5 17 23.5H64V66.5H17C14.2386 66.5 12 64.2614 12 61.5V28.5Z" fill="url(#paint0_linear)"/>
</g>
<path d="M12.5 28.5C12.5 26.0147 14.5147 24 17 24H63.5V66H17C14.5147 66 12.5 63.9853 12.5 61.5V28.5Z" stroke="black"/>
<mask id="path-3-inside-1" fill="white">
<path fill-rule="evenodd" clip-rule="evenodd" d="M5 6.5C5 3.18629 7.68629 0.5 11 0.5H72C79.732 0.5 86 6.76801 86 14.5V17.5V24.5V65.5V72.5V75.5C86 83.232 79.732 89.5 72 89.5H11C7.68629 89.5 5 86.8137 5 83.5V76.5C5 70.4249 9.92487 65.5 16 65.5H61V24.5H16C9.92487 24.5 5 19.5751 5 13.5V6.5Z"/>
</mask>
<g filter="url(#filter1_ii)">
<path fill-rule="evenodd" clip-rule="evenodd" d="M5 6.5C5 3.18629 7.68629 0.5 11 0.5H72C79.732 0.5 86 6.76801 86 14.5V17.5V24.5V65.5V72.5V75.5C86 83.232 79.732 89.5 72 89.5H11C7.68629 89.5 5 86.8137 5 83.5V76.5C5 70.4249 9.92487 65.5 16 65.5H61V24.5H16C9.92487 24.5 5 19.5751 5 13.5V6.5Z" fill="#666B71"/>
</g>
<path d="M61 65.5V66.5H62V65.5H61ZM61 24.5H62V23.5H61V24.5ZM11 -0.5C7.13401 -0.5 4 2.63401 4 6.5H6C6 3.73858 8.23858 1.5 11 1.5V-0.5ZM72 -0.5H11V1.5H72V-0.5ZM87 14.5C87 6.21573 80.2843 -0.5 72 -0.5V1.5C79.1797 1.5 85 7.3203 85 14.5H87ZM87 17.5V14.5H85V17.5H87ZM85 17.5V24.5H87V17.5H85ZM85 24.5V65.5H87V24.5H85ZM85 65.5V72.5H87V65.5H85ZM85 72.5V75.5H87V72.5H85ZM85 75.5C85 82.6797 79.1797 88.5 72 88.5V90.5C80.2843 90.5 87 83.7843 87 75.5H85ZM72 88.5H11V90.5H72V88.5ZM11 88.5C8.23858 88.5 6 86.2614 6 83.5H4C4 87.366 7.13401 90.5 11 90.5V88.5ZM6 83.5V76.5H4V83.5H6ZM6 76.5C6 70.9771 10.4772 66.5 16 66.5V64.5C9.37258 64.5 4 69.8726 4 76.5H6ZM16 66.5H61V64.5H16V66.5ZM62 65.5V24.5H60V65.5H62ZM16 25.5H61V23.5H16V25.5ZM4 13.5C4 20.1274 9.37258 25.5 16 25.5V23.5C10.4772 23.5 6 19.0228 6 13.5H4ZM4 6.5V13.5H6V6.5H4Z" fill="black" mask="url(#path-3-inside-1)"/>
<g filter="url(#filter2_d)">
<rect x="59" y="14" width="21" height="59" rx="8" fill="#666B71"/>
<rect x="59.5" y="14.5" width="20" height="58" rx="7.5" stroke="black"/>
</g>
<line x1="67.75" y1="22" x2="67.75" y2="66" stroke="black" stroke-width="1.5"/>
<defs>
<filter id="filter0_ii" x="8" y="19.5" width="60" height="51" filterUnits="userSpaceOnUse" color-interpolation-filters="sRGB">
<feFlood flood-opacity="0" result="BackgroundImageFix"/>
<feBlend mode="normal" in="SourceGraphic" in2="BackgroundImageFix" result="shape"/>
<feColorMatrix in="SourceAlpha" type="matrix" values="0 0 0 0 0 0 0 0 0 0 0 0 0 0 0 0 0 0 127 0" result="hardAlpha"/>
<feOffset dx="4" dy="4"/>
<feGaussianBlur stdDeviation="2"/>
<feComposite in2="hardAlpha" operator="arithmetic" k2="-1" k3="1"/>
<feColorMatrix type="matrix" values="0 0 0 0 0 0 0 0 0 0 0 0 0 0 0 0 0 0 0.25 0"/>
<feBlend mode="normal" in2="shape" result="effect1_innerShadow"/>
<feColorMatrix in="SourceAlpha" type="matrix" values="0 0 0 0 0 0 0 0 0 0 0 0 0 0 0 0 0 0 127 0" result="hardAlpha"/>
<feOffset dx="-4" dy="-4"/>
<feGaussianBlur stdDeviation="2"/>
<feComposite in2="hardAlpha" operator="arithmetic" k2="-1" k3="1"/>
<feColorMatrix type="matrix" values="0 0 0 0 0 0 0 0 0 0 0 0 0 0 0 0 0 0 0.25 0"/>
<feBlend mode="normal" in2="effect1_innerShadow" result="effect2_innerShadow"/>
</filter>
<filter id="filter1_ii" x="2" y="-2.5" width="87" height="95" filterUnits="userSpaceOnUse" color-interpolation-filters="sRGB">
<feFlood flood-opacity="0" result="BackgroundImageFix"/>
<feBlend mode="normal" in="SourceGraphic" in2="BackgroundImageFix" result="shape"/>
<feColorMatrix in="SourceAlpha" type="matrix" values="0 0 0 0 0 0 0 0 0 0 0 0 0 0 0 0 0 0 127 0" result="hardAlpha"/>
<feOffset dx="3" dy="3"/>
<feGaussianBlur stdDeviation="2"/>
<feComposite in2="hardAlpha" operator="arithmetic" k2="-1" k3="1"/>
<feColorMatrix type="matrix" values="0 0 0 0 0 0 0 0 0 0 0 0 0 0 0 0 0 0 0.25 0"/>
<feBlend mode="normal" in2="shape" result="effect1_innerShadow"/>
<feColorMatrix in="SourceAlpha" type="matrix" values="0 0 0 0 0 0 0 0 0 0 0 0 0 0 0 0 0 0 127 0" result="hardAlpha"/>
<feOffset dx="-3" dy="-3"/>
<feGaussianBlur stdDeviation="2"/>
<feComposite in2="hardAlpha" operator="arithmetic" k2="-1" k3="1"/>
<feColorMatrix type="matrix" values="0 0 0 0 0 0 0 0 0 0 0 0 0 0 0 0 0 0 0.25 0"/>
<feBlend mode="normal" in2="effect1_innerShadow" result="effect2_innerShadow"/>
</filter>
<filter id="filter2_d" x="58" y="13" width="29" height="67" filterUnits="userSpaceOnUse" color-interpolation-filters="sRGB">
<feFlood flood-opacity="0" result="BackgroundImageFix"/>
<feColorMatrix in="SourceAlpha" type="matrix" values="0 0 0 0 0 0 0 0 0 0 0 0 0 0 0 0 0 0 127 0"/>
<feOffset dx="3" dy="3"/>
<feGaussianBlur stdDeviation="2"/>
<feColorMatrix type="matrix" values="0 0 0 0 0 0 0 0 0 0 0 0 0 0 0 0 0 0 0.25 0"/>
<feBlend mode="normal" in2="BackgroundImageFix" result="effect1_dropShadow"/>
<feBlend mode="normal" in="SourceGraphic" in2="effect1_dropShadow" result="shape"/>
</filter>
<linearGradient id="paint0_linear" x1="35.5" y1="27.0833" x2="36.0241" y2="65.9878" gradientUnits="userSpaceOnUse">
<stop offset="0.0104167" stop-color="#505960"/>
<stop offset="0.308558" stop-color="#505960"/>
</linearGradient>
</defs>
</svg>
