<svg width="184" height="184" viewBox="0 0 184 184" fill="none" xmlns="http://www.w3.org/2000/svg">
<rect x="6.5" y="54.5" width="172" height="76" rx="1.5" fill="white" stroke="black"/>
<rect x="1.5" y="54.5" width="4" height="76" rx="1.5" fill="#C4C4C4" stroke="black"/>
<rect x="179.5" y="54.5" width="4" height="76" rx="1.5" fill="#C4C4C4" stroke="black"/>
<path d="M170.129 62.1612C166.129 59.1612 141.129 63.1612 134.629 61.1612C133.296 73.6612 131.529 103.661 135.129 123.661C152.629 125.161 163.129 121.661 167.629 124.161C176.129 88.6612 169.129 75.6612 170.129 62.1612Z" fill="#C1AC81" stroke="black"/>
<path d="M41 54.5H135C138.038 54.5 140.5 56.9624 140.5 60V125C140.5 128.038 138.038 130.5 135 130.5H41C40.1716 130.5 39.5 129.828 39.5 129V56C39.5 55.1716 40.1716 54.5 41 54.5Z" fill="#F2EDD7" stroke="black"/>
<path d="M8 54.5H102C105.038 54.5 107.5 56.9624 107.5 60V125C107.5 128.038 105.038 130.5 102 130.5H8C7.17157 130.5 6.5 129.828 6.5 129V56C6.5 55.1716 7.17157 54.5 8 54.5Z" fill="#AA302B" stroke="black"/>
<path d="M70 63.5C53.6 69.5 34.1667 89 26.5 98M43 92.4999C36.6 98.0999 28.5 110.5 26.5 117.5" stroke="black" stroke-width="1.5"/>
<path d="M126 66C117.2 70.4 113.667 78.1667 113 81.5M128 81.5C121.6 95.1 120.333 105.833 120.5 109.5" stroke="black" stroke-width="1.5"/>
</svg>
