<svg width="160" height="160" viewBox="0 0 160 160" fill="none" xmlns="http://www.w3.org/2000/svg">
<rect x="118.5" y="0.5" width="38" height="85" rx="1.5" fill="#C4C4C4" fill-opacity="0.5" stroke="black"/>
<path d="M61.5 74.634L55.5 67.634L57.5 64.634L64 70.634L61.5 74.634Z" fill="#0C0707" stroke="black"/>
<path d="M78.5931 62.6655L78.0971 53.4593L81.5104 52.2978L83.012 61.0154L78.5931 62.6655Z" fill="#0C0707" stroke="black"/>
<path d="M85.0149 54.0733C70.9306 53.8322 59.3529 63.1169 54.2489 71.3493C53.8741 71.9537 53.0083 72.0288 52.5599 71.4769L50.25 68.634L47.429 65.162C47.1701 64.8433 47.1282 64.4019 47.3404 64.0505C52.13 56.1171 65.9632 43.8886 82.8451 45.0811C83.2414 45.1091 83.5812 45.3775 83.7068 45.7544L84.8333 49.134L86.0301 52.7241C86.2545 53.3976 85.7247 54.0855 85.0149 54.0733Z" fill="#AB312C"/>
<path d="M50.25 68.634L47.429 65.162C47.1701 64.8433 47.1282 64.4019 47.3404 64.0505C52.13 56.1171 65.9632 43.8886 82.8451 45.0811C83.2414 45.1091 83.5812 45.3775 83.7068 45.7544L84.8333 49.134M50.25 68.634L52.5599 71.4769C53.0083 72.0288 53.8741 71.9537 54.2489 71.3493C59.3529 63.1169 70.9306 53.8322 85.0149 54.0733C85.7247 54.0855 86.2545 53.3976 86.0301 52.7241L84.8333 49.134M50.25 68.634C52 61.634 68 46.634 84.8333 49.134" stroke="black"/>
<path d="M57.9762 88.0123L105.943 86.227C100.405 58.4137 66.5745 50.1664 57.6414 79.0185L57.9762 88.0123Z" fill="#AB312C" stroke="black"/>
<path d="M3 86.5H156.5V147.5H3C2.17157 147.5 1.5 146.828 1.5 146V88C1.5 87.1716 2.17157 86.5 3 86.5Z" fill="#D3D1D2" stroke="black"/>
<path d="M122.329 114.876L122.329 114.876L122.333 114.873L140.691 98.5H159.5V146C159.5 147.933 157.933 149.5 156 149.5H106.5V128.727L122.329 114.876Z" fill="#CDCBCB" stroke="black"/>
<circle cx="133" cy="125" r="10.5" fill="#5E6477" stroke="black"/>
<rect x="153.288" y="107.706" width="3" height="53.0882" rx="1.5" transform="rotate(48.2104 153.288 107.706)" fill="#FFFEFE" stroke="black"/>
<path d="M96.9108 107.736L121.753 86.6192C123.647 85.0096 126.487 85.2398 128.097 87.1334L134.124 94.2238C134.66 94.8551 134.583 95.8017 133.952 96.3382L106.824 119.398C106.192 119.934 105.246 119.858 104.709 119.226L96.7394 109.85C96.2029 109.219 96.2796 108.272 96.9108 107.736Z" fill="#CACCBE" stroke="black"/>
<rect x="50.5" y="91.5" width="40" height="30" fill="#AB7254" stroke="black"/>
<rect x="44.5" y="106.5" width="39" height="8" rx="4" fill="#92A4A6" stroke="black"/>
<path d="M62 141.5L78.5 131L79 135L65.5 144.5C65.5 146 66.5606 149.939 65.5 151C62 154.5 60.5 148.5 62 141.5Z" fill="#92A4A6"/>
<path d="M83 110.5C87 111 88 110 88.5 111.5C88.9 112.7 82 125 78.5 131M78.5 131L62 141.5M78.5 131L79 135L65.5 144.5M62 141.5L65.5 144.5M62 141.5C60.5 148.5 62 154.5 65.5 151C66.5606 149.939 65.5 146 65.5 144.5" stroke="black"/>
<rect x="29" y="132" width="24" height="10" fill="#AB312C"/>
<rect x="11.6891" y="117.033" width="24" height="17.1053" rx="1.5" transform="rotate(-57.9576 11.6891 117.033)" fill="#E6D9A5" stroke="black"/>
<path d="M19.5 112C22.5 108.5 28.1667 105.833 31 104" stroke="black"/>
<rect x="139.476" y="73.3393" width="21" height="17" rx="1.5" transform="rotate(-138.675 139.476 73.3393)" fill="white" stroke="black"/>
<rect x="131.5" y="22.5" width="24" height="5" fill="#9DACAF" stroke="black"/>
<rect x="131.5" y="16.5" width="26" height="6" fill="#C1947C" stroke="black"/>
<rect x="131.5" y="11.5" width="24" height="5" fill="#4B4B57" stroke="black"/>
<rect x="131.5" y="6.5" width="26" height="5" fill="#E3D6A2" stroke="black"/>
</svg>
