<svg id="Layer_1" height="512" viewBox="0 0 512 512" width="512" xmlns="http://www.w3.org/2000/svg" data-name="Layer 1"><path d="m464.583 200.913h-153.403a84.756 84.756 0 0 0 28.255-78.224 9.976 9.976 0 0 0 -9.872-8.349h-71.277v-50.353a18.634 18.634 0 1 1 37.267 0 6 6 0 0 0 12 0 30.63 30.63 0 0 0 -61.236-1.229 5.945 5.945 0 0 0 -.031.615v50.967h-63.849a9.977 9.977 0 0 0 -9.872 8.348 85.158 85.158 0 0 0 -1.168 14.02 84.226 84.226 0 0 0 29.423 64.205h-153.403a26.029 26.029 0 0 0 -26 26v185.462a26.03 26.03 0 0 0 26 26h13.425l8.61 34.209a8 8 0 0 0 7.758 6.063h16.279a8 8 0 0 0 7.757-6.062l8.611-34.21h291.617l8.611 34.211a8 8 0 0 0 7.757 6.061h16.282a7.994 7.994 0 0 0 7.754-6.06l8.611-34.212h14.094a26.03 26.03 0 0 0 26-26v-185.462a26.029 26.029 0 0 0 -26-26zm-242.583-.063a72.088 72.088 0 0 1 -38.6-64.142 72.934 72.934 0 0 1 .744-10.368h143.715a72.944 72.944 0 0 1 .744 10.368 72.09 72.09 0 0 1 -38.603 64.142c-.037.019-.07.043-.106.063h-67.794c-.033-.02-.066-.044-.1-.063zm-188.583 211.525v-185.462a14.015 14.015 0 0 1 14-14h202.583v213.462h-202.583a14.016 14.016 0 0 1 -14-14zm56.949 54.272h-10.034l-7.116-28.272h24.267zm340.633 0h-10.034l-7.117-28.272h24.267zm47.584-54.272a14.016 14.016 0 0 1 -14 14h-202.583v-213.462h202.583a14.015 14.015 0 0 1 14 14z"/><path d="m220.666 297.606a6 6 0 0 0 -6 6v16.038a6 6 0 0 0 12 0v-16.038a6 6 0 0 0 -6-6z"/><path d="m284.041 297.606a6 6 0 0 0 -6 6v16.038a6 6 0 0 0 12 0v-16.038a6 6 0 0 0 -6-6z"/></svg>