<svg width="175" height="175" viewBox="0 0 175 175" fill="none" xmlns="http://www.w3.org/2000/svg">
<g clip-path="url(#clip0)">
<path d="M158 1H16V175H158V1Z" fill="#EBDEAA" stroke="black"/>
<path d="M114 29H62C55 48.5 50.4 121.5 62 149.5H114C121 121.5 124 63.5 114 29Z" fill="#998155" stroke="black"/>
<rect x="75.2044" y="99.0002" width="21.9146" height="16.4846" rx="1.5" transform="rotate(-50.0336 75.2044 99.0002)" fill="#C4C4C4" stroke="black"/>
<rect x="77.3996" y="84.4978" width="21.9146" height="16.4846" rx="1.5" transform="rotate(-30.3606 77.3996 84.4978)" fill="#F8F9EA" stroke="black"/>
<path d="M80.4261 127.411C73.846 120.477 80.0671 120.121 82.5 124.5C77.5 112.5 86 116 86 121C87 118 89 119.5 89 121.5C93 116.5 99.5 116.308 91.5 128C102 116.5 102 126.5 97 128.5C103.5 128.5 103 131 97 133C112.5 133.5 99.5 139 93.5 136C97.5 138 94.5714 142.5 91 137.5C98.5 149.5 87 146 87 138.5C82.5 153.5 80 142.5 81.5 138.5C78 142 77 138.5 78.5 136.5C67.5 143 69.5 133 76 133C72.5 132 73 130 75.5 130C69.6779 127.089 74.2132 121.353 80.4261 127.411Z" fill="url(#paint0_linear)" stroke="black"/>
<path d="M87.5 130.5C90.5 124 84.1 125.2 84.5 130C74.5001 130 80 139 87.5 135C89 137 91.5 135 90 133.5C95 132.5 90.5 127 87.5 130.5Z" fill="url(#paint1_linear)" stroke="black"/>
<circle cx="99" cy="54" r="14.5" fill="white" stroke="black"/>
<g filter="url(#filter0_i)">
<path d="M87 56.9999C78.4999 38.9999 102.5 42.9999 101 45.9999C84 45.9999 90.5 57.9999 87 56.9999Z" fill="#FDEA3E"/>
</g>
<path d="M87 56.9999C78.4999 38.9999 102.5 42.9999 101 45.9999C84 45.9999 90.5 57.9999 87 56.9999Z" stroke="black" stroke-width="0.5"/>
<g filter="url(#filter1_i)">
<path d="M87.7227 57.3377C86.3767 37.4772 107.262 49.9587 104.771 52.2045C88.9433 46.0014 90.6165 59.5458 87.7227 57.3377Z" fill="#FDEA3E"/>
</g>
<path d="M87.7227 57.3377C86.3767 37.4772 107.262 49.9587 104.771 52.2045C88.9433 46.0014 90.6165 59.5458 87.7227 57.3377Z" stroke="black" stroke-width="0.5"/>
<path d="M98 71.9999C98.1667 71.3332 97.8 69.1999 95 67.9999L94 67.4999C94.8333 67.3333 96.9 67.7999 98.5 70.9999C98.6667 71.1666 99.6 71.5999 98 71.9999Z" fill="#5B2D03" stroke="#201401" stroke-width="0.2"/>
<g filter="url(#filter2_i)">
<ellipse cx="99.2785" cy="53.7095" rx="4.58297" ry="3.54585" transform="rotate(117.907 99.2785 53.7095)" fill="#3F3586"/>
</g>
<path d="M97.2505 57.5386C95.6913 56.7128 95.2162 54.3378 96.3659 52.167C97.5157 49.9961 99.7473 49.0547 101.306 49.8804C102.866 50.7062 103.341 53.0813 102.191 55.2521C101.041 57.4229 98.8097 58.3644 97.2505 57.5386Z" stroke="black" stroke-width="0.5"/>
<g filter="url(#filter3_i)">
<circle cx="86" cy="58" r="2" fill="#7AAE0B"/>
</g>
<circle cx="86" cy="58" r="1.85" stroke="black" stroke-width="0.3"/>
<g filter="url(#filter4_i)">
<ellipse cx="94.7941" cy="57.6272" rx="4.58297" ry="3.54585" transform="rotate(80.604 94.7941 57.6272)" fill="#3F3586"/>
</g>
<path d="M95.5015 61.9021C93.7608 62.1901 91.9435 60.5888 91.5425 58.1653C91.1414 55.7418 92.346 53.6404 94.0867 53.3524C95.8274 53.0643 97.6447 54.6656 98.0457 57.0892C98.4468 59.5127 97.2422 61.614 95.5015 61.9021Z" stroke="black" stroke-width="0.5"/>
<g filter="url(#filter5_i)">
<circle cx="89" cy="59" r="2" fill="#7AAE0B"/>
</g>
<circle cx="89" cy="59" r="1.85" stroke="black" stroke-width="0.3"/>
<g filter="url(#filter6_i)">
<circle cx="87" cy="61" r="2" fill="#7AAE0B"/>
</g>
<circle cx="87" cy="61" r="1.85" stroke="black" stroke-width="0.3"/>
<g filter="url(#filter7_i)">
<circle cx="90" cy="61" r="2" fill="#7AAE0B"/>
</g>
<circle cx="90" cy="61" r="1.85" stroke="black" stroke-width="0.3"/>
<g filter="url(#filter8_i)">
<circle cx="92" cy="60" r="2" fill="#7AAE0B"/>
</g>
<circle cx="92" cy="60" r="1.85" stroke="black" stroke-width="0.3"/>
<g filter="url(#filter9_i)">
<circle cx="87" cy="64" r="2" fill="#7AAE0B"/>
</g>
<circle cx="87" cy="64" r="1.85" stroke="black" stroke-width="0.3"/>
<g filter="url(#filter10_i)">
<circle cx="89" cy="63" r="2" fill="#7AAE0B"/>
</g>
<circle cx="89" cy="63" r="1.85" stroke="black" stroke-width="0.3"/>
<g filter="url(#filter11_i)">
<circle cx="92" cy="62" r="2" fill="#7AAE0B"/>
</g>
<circle cx="92" cy="62" r="1.85" stroke="black" stroke-width="0.3"/>
<g filter="url(#filter12_i)">
<circle cx="92" cy="65" r="2" fill="#7AAE0B"/>
</g>
<circle cx="92" cy="65" r="1.85" stroke="black" stroke-width="0.3"/>
<g filter="url(#filter13_i)">
<circle cx="95" cy="62" r="2" fill="#7AAE0B"/>
</g>
<circle cx="95" cy="62" r="1.85" stroke="black" stroke-width="0.3"/>
<g filter="url(#filter14_i)">
<circle cx="94" cy="65" r="2" fill="#7AAE0B"/>
</g>
<circle cx="94" cy="65" r="1.85" stroke="black" stroke-width="0.3"/>
<g filter="url(#filter15_i)">
<circle cx="92" cy="68" r="2" fill="#7AAE0B"/>
</g>
<circle cx="92" cy="68" r="1.85" stroke="black" stroke-width="0.3"/>
<g filter="url(#filter16_i)">
<circle cx="96" cy="65" r="2" fill="#7AAE0B"/>
</g>
<circle cx="96" cy="65" r="1.85" stroke="black" stroke-width="0.3"/>
<g filter="url(#filter17_i)">
<circle cx="95" cy="67" r="2" fill="#7AAE0B"/>
</g>
<circle cx="95" cy="67" r="1.85" stroke="black" stroke-width="0.3"/>
<g filter="url(#filter18_i)">
<circle cx="89" cy="66" r="2" fill="#7AAE0B"/>
</g>
<circle cx="89" cy="66" r="1.85" stroke="black" stroke-width="0.3"/>
</g>
<defs>
<filter id="filter0_i" x="84.9227" y="43.1406" width="17.395" height="15.1685" filterUnits="userSpaceOnUse" color-interpolation-filters="sRGB">
<feFlood flood-opacity="0" result="BackgroundImageFix"/>
<feBlend mode="normal" in="SourceGraphic" in2="BackgroundImageFix" result="shape"/>
<feColorMatrix in="SourceAlpha" type="matrix" values="0 0 0 0 0 0 0 0 0 0 0 0 0 0 0 0 0 0 127 0" result="hardAlpha"/>
<feOffset dx="1" dy="1"/>
<feGaussianBlur stdDeviation="0.5"/>
<feComposite in2="hardAlpha" operator="arithmetic" k2="-1" k3="1"/>
<feColorMatrix type="matrix" values="0 0 0 0 0.391667 0 0 0 0 0.197335 0 0 0 0 0.0179514 0 0 0 0.5 0"/>
<feBlend mode="normal" in2="shape" result="effect1_innerShadow"/>
</filter>
<filter id="filter1_i" x="85.6758" y="43.676" width="21.4345" height="20.1739" filterUnits="userSpaceOnUse" color-interpolation-filters="sRGB">
<feFlood flood-opacity="0" result="BackgroundImageFix"/>
<feBlend mode="normal" in="SourceGraphic" in2="BackgroundImageFix" result="shape"/>
<feColorMatrix in="SourceAlpha" type="matrix" values="0 0 0 0 0 0 0 0 0 0 0 0 0 0 0 0 0 0 127 0" result="hardAlpha"/>
<feOffset dx="1" dy="1"/>
<feGaussianBlur stdDeviation="0.5"/>
<feComposite in2="hardAlpha" operator="arithmetic" k2="-1" k3="1"/>
<feColorMatrix type="matrix" values="0 0 0 0 0.391667 0 0 0 0 0.197335 0 0 0 0 0.0179514 0 0 0 0.5 0"/>
<feBlend mode="normal" in2="shape" result="effect1_innerShadow"/>
</filter>
<filter id="filter2_i" x="94" y="47" width="11.557" height="12.4192" filterUnits="userSpaceOnUse" color-interpolation-filters="sRGB">
<feFlood flood-opacity="0" result="BackgroundImageFix"/>
<feBlend mode="normal" in="SourceGraphic" in2="BackgroundImageFix" result="shape"/>
<feColorMatrix in="SourceAlpha" type="matrix" values="0 0 0 0 0 0 0 0 0 0 0 0 0 0 0 0 0 0 127 0" result="hardAlpha"/>
<feOffset dx="1" dy="-1"/>
<feGaussianBlur stdDeviation="2"/>
<feComposite in2="hardAlpha" operator="arithmetic" k2="-1" k3="1"/>
<feColorMatrix type="matrix" values="0 0 0 0 1 0 0 0 0 1 0 0 0 0 1 0 0 0 0.25 0"/>
<feBlend mode="normal" in2="shape" result="effect1_innerShadow"/>
</filter>
<filter id="filter3_i" x="83" y="55" width="5" height="5" filterUnits="userSpaceOnUse" color-interpolation-filters="sRGB">
<feFlood flood-opacity="0" result="BackgroundImageFix"/>
<feBlend mode="normal" in="SourceGraphic" in2="BackgroundImageFix" result="shape"/>
<feColorMatrix in="SourceAlpha" type="matrix" values="0 0 0 0 0 0 0 0 0 0 0 0 0 0 0 0 0 0 127 0" result="hardAlpha"/>
<feOffset dx="-1" dy="-1"/>
<feGaussianBlur stdDeviation="0.5"/>
<feComposite in2="hardAlpha" operator="arithmetic" k2="-1" k3="1"/>
<feColorMatrix type="matrix" values="0 0 0 0 0 0 0 0 0 0 0 0 0 0 0 0 0 0 0.25 0"/>
<feBlend mode="normal" in2="shape" result="effect1_innerShadow"/>
</filter>
<filter id="filter4_i" x="90.5476" y="51.5269" width="9.49295" height="11.2007" filterUnits="userSpaceOnUse" color-interpolation-filters="sRGB">
<feFlood flood-opacity="0" result="BackgroundImageFix"/>
<feBlend mode="normal" in="SourceGraphic" in2="BackgroundImageFix" result="shape"/>
<feColorMatrix in="SourceAlpha" type="matrix" values="0 0 0 0 0 0 0 0 0 0 0 0 0 0 0 0 0 0 127 0" result="hardAlpha"/>
<feOffset dx="1" dy="-1"/>
<feGaussianBlur stdDeviation="2"/>
<feComposite in2="hardAlpha" operator="arithmetic" k2="-1" k3="1"/>
<feColorMatrix type="matrix" values="0 0 0 0 1 0 0 0 0 1 0 0 0 0 1 0 0 0 0.25 0"/>
<feBlend mode="normal" in2="shape" result="effect1_innerShadow"/>
</filter>
<filter id="filter5_i" x="86" y="56" width="5" height="5" filterUnits="userSpaceOnUse" color-interpolation-filters="sRGB">
<feFlood flood-opacity="0" result="BackgroundImageFix"/>
<feBlend mode="normal" in="SourceGraphic" in2="BackgroundImageFix" result="shape"/>
<feColorMatrix in="SourceAlpha" type="matrix" values="0 0 0 0 0 0 0 0 0 0 0 0 0 0 0 0 0 0 127 0" result="hardAlpha"/>
<feOffset dx="-1" dy="-1"/>
<feGaussianBlur stdDeviation="0.5"/>
<feComposite in2="hardAlpha" operator="arithmetic" k2="-1" k3="1"/>
<feColorMatrix type="matrix" values="0 0 0 0 0 0 0 0 0 0 0 0 0 0 0 0 0 0 0.25 0"/>
<feBlend mode="normal" in2="shape" result="effect1_innerShadow"/>
</filter>
<filter id="filter6_i" x="84" y="58" width="5" height="5" filterUnits="userSpaceOnUse" color-interpolation-filters="sRGB">
<feFlood flood-opacity="0" result="BackgroundImageFix"/>
<feBlend mode="normal" in="SourceGraphic" in2="BackgroundImageFix" result="shape"/>
<feColorMatrix in="SourceAlpha" type="matrix" values="0 0 0 0 0 0 0 0 0 0 0 0 0 0 0 0 0 0 127 0" result="hardAlpha"/>
<feOffset dx="-1" dy="-1"/>
<feGaussianBlur stdDeviation="0.5"/>
<feComposite in2="hardAlpha" operator="arithmetic" k2="-1" k3="1"/>
<feColorMatrix type="matrix" values="0 0 0 0 0 0 0 0 0 0 0 0 0 0 0 0 0 0 0.25 0"/>
<feBlend mode="normal" in2="shape" result="effect1_innerShadow"/>
</filter>
<filter id="filter7_i" x="87" y="58" width="5" height="5" filterUnits="userSpaceOnUse" color-interpolation-filters="sRGB">
<feFlood flood-opacity="0" result="BackgroundImageFix"/>
<feBlend mode="normal" in="SourceGraphic" in2="BackgroundImageFix" result="shape"/>
<feColorMatrix in="SourceAlpha" type="matrix" values="0 0 0 0 0 0 0 0 0 0 0 0 0 0 0 0 0 0 127 0" result="hardAlpha"/>
<feOffset dx="-1" dy="-1"/>
<feGaussianBlur stdDeviation="0.5"/>
<feComposite in2="hardAlpha" operator="arithmetic" k2="-1" k3="1"/>
<feColorMatrix type="matrix" values="0 0 0 0 0 0 0 0 0 0 0 0 0 0 0 0 0 0 0.25 0"/>
<feBlend mode="normal" in2="shape" result="effect1_innerShadow"/>
</filter>
<filter id="filter8_i" x="89" y="57" width="5" height="5" filterUnits="userSpaceOnUse" color-interpolation-filters="sRGB">
<feFlood flood-opacity="0" result="BackgroundImageFix"/>
<feBlend mode="normal" in="SourceGraphic" in2="BackgroundImageFix" result="shape"/>
<feColorMatrix in="SourceAlpha" type="matrix" values="0 0 0 0 0 0 0 0 0 0 0 0 0 0 0 0 0 0 127 0" result="hardAlpha"/>
<feOffset dx="-1" dy="-1"/>
<feGaussianBlur stdDeviation="0.5"/>
<feComposite in2="hardAlpha" operator="arithmetic" k2="-1" k3="1"/>
<feColorMatrix type="matrix" values="0 0 0 0 0 0 0 0 0 0 0 0 0 0 0 0 0 0 0.25 0"/>
<feBlend mode="normal" in2="shape" result="effect1_innerShadow"/>
</filter>
<filter id="filter9_i" x="84" y="61" width="5" height="5" filterUnits="userSpaceOnUse" color-interpolation-filters="sRGB">
<feFlood flood-opacity="0" result="BackgroundImageFix"/>
<feBlend mode="normal" in="SourceGraphic" in2="BackgroundImageFix" result="shape"/>
<feColorMatrix in="SourceAlpha" type="matrix" values="0 0 0 0 0 0 0 0 0 0 0 0 0 0 0 0 0 0 127 0" result="hardAlpha"/>
<feOffset dx="-1" dy="-1"/>
<feGaussianBlur stdDeviation="0.5"/>
<feComposite in2="hardAlpha" operator="arithmetic" k2="-1" k3="1"/>
<feColorMatrix type="matrix" values="0 0 0 0 0 0 0 0 0 0 0 0 0 0 0 0 0 0 0.25 0"/>
<feBlend mode="normal" in2="shape" result="effect1_innerShadow"/>
</filter>
<filter id="filter10_i" x="86" y="60" width="5" height="5" filterUnits="userSpaceOnUse" color-interpolation-filters="sRGB">
<feFlood flood-opacity="0" result="BackgroundImageFix"/>
<feBlend mode="normal" in="SourceGraphic" in2="BackgroundImageFix" result="shape"/>
<feColorMatrix in="SourceAlpha" type="matrix" values="0 0 0 0 0 0 0 0 0 0 0 0 0 0 0 0 0 0 127 0" result="hardAlpha"/>
<feOffset dx="-1" dy="-1"/>
<feGaussianBlur stdDeviation="0.5"/>
<feComposite in2="hardAlpha" operator="arithmetic" k2="-1" k3="1"/>
<feColorMatrix type="matrix" values="0 0 0 0 0 0 0 0 0 0 0 0 0 0 0 0 0 0 0.25 0"/>
<feBlend mode="normal" in2="shape" result="effect1_innerShadow"/>
</filter>
<filter id="filter11_i" x="89" y="59" width="5" height="5" filterUnits="userSpaceOnUse" color-interpolation-filters="sRGB">
<feFlood flood-opacity="0" result="BackgroundImageFix"/>
<feBlend mode="normal" in="SourceGraphic" in2="BackgroundImageFix" result="shape"/>
<feColorMatrix in="SourceAlpha" type="matrix" values="0 0 0 0 0 0 0 0 0 0 0 0 0 0 0 0 0 0 127 0" result="hardAlpha"/>
<feOffset dx="-1" dy="-1"/>
<feGaussianBlur stdDeviation="0.5"/>
<feComposite in2="hardAlpha" operator="arithmetic" k2="-1" k3="1"/>
<feColorMatrix type="matrix" values="0 0 0 0 0 0 0 0 0 0 0 0 0 0 0 0 0 0 0.25 0"/>
<feBlend mode="normal" in2="shape" result="effect1_innerShadow"/>
</filter>
<filter id="filter12_i" x="89" y="62" width="5" height="5" filterUnits="userSpaceOnUse" color-interpolation-filters="sRGB">
<feFlood flood-opacity="0" result="BackgroundImageFix"/>
<feBlend mode="normal" in="SourceGraphic" in2="BackgroundImageFix" result="shape"/>
<feColorMatrix in="SourceAlpha" type="matrix" values="0 0 0 0 0 0 0 0 0 0 0 0 0 0 0 0 0 0 127 0" result="hardAlpha"/>
<feOffset dx="-1" dy="-1"/>
<feGaussianBlur stdDeviation="0.5"/>
<feComposite in2="hardAlpha" operator="arithmetic" k2="-1" k3="1"/>
<feColorMatrix type="matrix" values="0 0 0 0 0 0 0 0 0 0 0 0 0 0 0 0 0 0 0.25 0"/>
<feBlend mode="normal" in2="shape" result="effect1_innerShadow"/>
</filter>
<filter id="filter13_i" x="92" y="59" width="5" height="5" filterUnits="userSpaceOnUse" color-interpolation-filters="sRGB">
<feFlood flood-opacity="0" result="BackgroundImageFix"/>
<feBlend mode="normal" in="SourceGraphic" in2="BackgroundImageFix" result="shape"/>
<feColorMatrix in="SourceAlpha" type="matrix" values="0 0 0 0 0 0 0 0 0 0 0 0 0 0 0 0 0 0 127 0" result="hardAlpha"/>
<feOffset dx="-1" dy="-1"/>
<feGaussianBlur stdDeviation="0.5"/>
<feComposite in2="hardAlpha" operator="arithmetic" k2="-1" k3="1"/>
<feColorMatrix type="matrix" values="0 0 0 0 0 0 0 0 0 0 0 0 0 0 0 0 0 0 0.25 0"/>
<feBlend mode="normal" in2="shape" result="effect1_innerShadow"/>
</filter>
<filter id="filter14_i" x="91" y="62" width="5" height="5" filterUnits="userSpaceOnUse" color-interpolation-filters="sRGB">
<feFlood flood-opacity="0" result="BackgroundImageFix"/>
<feBlend mode="normal" in="SourceGraphic" in2="BackgroundImageFix" result="shape"/>
<feColorMatrix in="SourceAlpha" type="matrix" values="0 0 0 0 0 0 0 0 0 0 0 0 0 0 0 0 0 0 127 0" result="hardAlpha"/>
<feOffset dx="-1" dy="-1"/>
<feGaussianBlur stdDeviation="0.5"/>
<feComposite in2="hardAlpha" operator="arithmetic" k2="-1" k3="1"/>
<feColorMatrix type="matrix" values="0 0 0 0 0 0 0 0 0 0 0 0 0 0 0 0 0 0 0.25 0"/>
<feBlend mode="normal" in2="shape" result="effect1_innerShadow"/>
</filter>
<filter id="filter15_i" x="89" y="65" width="5" height="5" filterUnits="userSpaceOnUse" color-interpolation-filters="sRGB">
<feFlood flood-opacity="0" result="BackgroundImageFix"/>
<feBlend mode="normal" in="SourceGraphic" in2="BackgroundImageFix" result="shape"/>
<feColorMatrix in="SourceAlpha" type="matrix" values="0 0 0 0 0 0 0 0 0 0 0 0 0 0 0 0 0 0 127 0" result="hardAlpha"/>
<feOffset dx="-1" dy="-1"/>
<feGaussianBlur stdDeviation="0.5"/>
<feComposite in2="hardAlpha" operator="arithmetic" k2="-1" k3="1"/>
<feColorMatrix type="matrix" values="0 0 0 0 0 0 0 0 0 0 0 0 0 0 0 0 0 0 0.25 0"/>
<feBlend mode="normal" in2="shape" result="effect1_innerShadow"/>
</filter>
<filter id="filter16_i" x="93" y="62" width="5" height="5" filterUnits="userSpaceOnUse" color-interpolation-filters="sRGB">
<feFlood flood-opacity="0" result="BackgroundImageFix"/>
<feBlend mode="normal" in="SourceGraphic" in2="BackgroundImageFix" result="shape"/>
<feColorMatrix in="SourceAlpha" type="matrix" values="0 0 0 0 0 0 0 0 0 0 0 0 0 0 0 0 0 0 127 0" result="hardAlpha"/>
<feOffset dx="-1" dy="-1"/>
<feGaussianBlur stdDeviation="0.5"/>
<feComposite in2="hardAlpha" operator="arithmetic" k2="-1" k3="1"/>
<feColorMatrix type="matrix" values="0 0 0 0 0 0 0 0 0 0 0 0 0 0 0 0 0 0 0.25 0"/>
<feBlend mode="normal" in2="shape" result="effect1_innerShadow"/>
</filter>
<filter id="filter17_i" x="92" y="64" width="5" height="5" filterUnits="userSpaceOnUse" color-interpolation-filters="sRGB">
<feFlood flood-opacity="0" result="BackgroundImageFix"/>
<feBlend mode="normal" in="SourceGraphic" in2="BackgroundImageFix" result="shape"/>
<feColorMatrix in="SourceAlpha" type="matrix" values="0 0 0 0 0 0 0 0 0 0 0 0 0 0 0 0 0 0 127 0" result="hardAlpha"/>
<feOffset dx="-1" dy="-1"/>
<feGaussianBlur stdDeviation="0.5"/>
<feComposite in2="hardAlpha" operator="arithmetic" k2="-1" k3="1"/>
<feColorMatrix type="matrix" values="0 0 0 0 0 0 0 0 0 0 0 0 0 0 0 0 0 0 0.25 0"/>
<feBlend mode="normal" in2="shape" result="effect1_innerShadow"/>
</filter>
<filter id="filter18_i" x="86" y="63" width="5" height="5" filterUnits="userSpaceOnUse" color-interpolation-filters="sRGB">
<feFlood flood-opacity="0" result="BackgroundImageFix"/>
<feBlend mode="normal" in="SourceGraphic" in2="BackgroundImageFix" result="shape"/>
<feColorMatrix in="SourceAlpha" type="matrix" values="0 0 0 0 0 0 0 0 0 0 0 0 0 0 0 0 0 0 127 0" result="hardAlpha"/>
<feOffset dx="-1" dy="-1"/>
<feGaussianBlur stdDeviation="0.5"/>
<feComposite in2="hardAlpha" operator="arithmetic" k2="-1" k3="1"/>
<feColorMatrix type="matrix" values="0 0 0 0 0 0 0 0 0 0 0 0 0 0 0 0 0 0 0.25 0"/>
<feBlend mode="normal" in2="shape" result="effect1_innerShadow"/>
</filter>
<linearGradient id="paint0_linear" x1="87.505" y1="116.375" x2="87.505" y2="146.148" gradientUnits="userSpaceOnUse">
<stop offset="0.385417" stop-color="#7C8366"/>
<stop offset="1" stop-color="#BAEF14" stop-opacity="0.96"/>
</linearGradient>
<linearGradient id="paint1_linear" x1="85.6571" y1="126.009" x2="85.6571" y2="136.025" gradientUnits="userSpaceOnUse">
<stop offset="0.385417" stop-color="#7C8366"/>
<stop offset="1" stop-color="#BAEF14" stop-opacity="0.96"/>
</linearGradient>
<clipPath id="clip0">
<rect width="175" height="175" fill="white"/>
</clipPath>
</defs>
</svg>
