<svg id="Layer_1" height="512" viewBox="0 0 512 512" width="512" xmlns="http://www.w3.org/2000/svg" data-name="Layer 1"><path d="m232.554 230.536a6 6 0 0 0 -6 6v36.716a6 6 0 0 0 12 0v-36.716a6 6 0 0 0 -6-6z"/><path d="m295.775 230.536a6 6 0 0 0 -6 6v36.716a6 6 0 1 0 12 0v-36.716a6 6 0 0 0 -6-6z"/><path d="m394.5 12.3h-277a26.029 26.029 0 0 0 -26 26v433.632a26.029 26.029 0 0 0 26 26h277a26.029 26.029 0 0 0 26-26v-433.632a26.029 26.029 0 0 0 -26-26zm-291 459.633v-433.633a14.015 14.015 0 0 1 14-14h140.94v461.632h-140.94a14.016 14.016 0 0 1 -14-14zm305 0a14.016 14.016 0 0 1 -14 14h-124.06v-461.633h124.06a14.015 14.015 0 0 1 14 14z"/></svg>